<?xml version="1.0" encoding="utf-8"?>
<!-- Generator: Adobe Illustrator 27.7.0, SVG Export Plug-In . SVG Version: 6.00 Build 0)  -->
<svg version="1.1" id="Calque_1" xmlns="http://www.w3.org/2000/svg" xmlns:xlink="http://www.w3.org/1999/xlink" x="0px" y="0px"
	 viewBox="0 0 513.7 513.7" style="enable-background:new 0 0 513.7 513.7;" xml:space="preserve">
<style type="text/css">
	.st0{fill:#CBBBA0;}
	.st1{fill:#FFFFFF;}
</style>
<g id="Calque_3">
</g>
<g id="Calque_1_00000087372573228176624020000004284145205451314831_">
	<path class="st0" d="M170.1,151.4c-1.6,1.4-3.1,2.7-4.5,4c-6.5,5.8-12.4,12.2-17.1,19.6c-2,3.2-2.7,7.1-4.5,10.4s-4.2,6.1-6.2,9.3
		c-0.7,1.2-1.1,2.6-1.7,4c-1.1-0.4-2.2-0.8-3.3-1.2c-8.1-2.9-16.2-5.2-24.8-5.8c-4.8-0.3-9.6-0.9-14.4-1.3
		c-8.1-0.6-15.1,2.4-21.6,6.8c-9.2,6.1-16,14.5-22.2,23.4C45.3,227,41,233.5,37,240.2c-4.6,7.7-11.1,13.3-18.3,18.3
		c-1.3,0.9-2.6,1.9-4,2.9c-0.3-0.4-0.7-0.9-0.8-1.3c-0.1-3.2-0.5-6.6,0-9.7c1-6.3,2-12.6,3.9-18.6c2.4-8.1,5.3-16.1,8.6-23.9
		c6.9-16.3,16-31.3,27.9-44.5c10.6-11.8,22.9-21.4,37.8-27.2c7.3-2.8,14.8-5,22.3-7.2c5.6-1.7,11.1-3.5,16.8-4.3
		c8.1-1.1,16.1-0.4,22.6,6C160,136.8,165,144.1,170.1,151.4z"/>
	<path class="st0" d="M501,262.7c-3.1-2.3-5.8-4.2-8.5-6.1c-6-4.4-10.7-9.9-14.8-16.2c-6.3-9.8-13-19.5-20.1-28.8
		c-6.1-8-13.8-14.5-23.5-18.1c-6.6-2.4-13.4-2.7-20.2-1.4c-0.4,0.1-0.9,0.2-1.3,0.2c-11.1-0.1-21.5,3.1-31.8,6.8
		c-0.5,0.2-0.9,0.3-1,0.4c-2.3-3.7-4.3-7.5-6.7-10.9c-1.3-1.9-2.3-3.6-2.9-5.8c-0.7-2.5-2-4.9-3.5-7.1c-5.9-8.7-13.1-16.3-21.4-23.1
		c6-8.5,11.3-17.4,20-23.7c5.3-3.9,11.4-4.1,17.3-3.2c7.1,1.1,14.1,3.1,21,5.1c7.3,2.2,14.6,4.6,21.8,7.4
		c11.2,4.2,20.6,11.2,29.2,19.4c15,14.3,25.8,31.5,34.2,50.3c3.7,8.2,6.8,16.6,9,25.3c1.7,6.7,3.2,13.3,3.4,20.1
		C501.1,256.2,501,259.2,501,262.7z"/>
	<path class="st0" d="M260.3,125.7c-4.6,0.2-9.3,0.1-13.8,0.7c-6,0.8-11.9,2.1-17.9,3.2c-0.2-2.2-0.3-4.9-0.6-7.6
		c-0.3-3-1-5.7-3.5-8c-7.7-7.3-10.5-16.6-9.2-26.9c0.7-5.4,2.5-10.9,4.8-15.8c2.8-6,5.1-12.2,8-18.1c5.6-11.7,15.1-20,25.6-27.1
		c2.5-1.7,5.1-3.2,7.7-4.7c0.6-0.3,1.6-0.5,2.2-0.2c13.1,7.2,24.6,16.2,32.3,29.3c2.4,4,4.3,8.3,4.7,13.1c0.1,1.2,0.9,2.4,1.5,3.6
		c4.2,7.6,6.8,15.7,6.8,24.5c-0.1,9.1-3.3,17.1-10.2,23.2c-1.7,1.5-2.3,3-2.5,4.9c-0.4,3.4-0.7,6.8-1.1,10.3
		c-10.1-3.7-20.7-3.8-31.3-4.4C262.7,125.7,261.5,125.7,260.3,125.7z"/>
	<path class="st0" d="M198.5,405.3c-14.6,16.8-24.4,36.3-33.3,56.3c-3.4,7.6-6.8,15.1-10.3,22.5c-0.9,1.9-2.2,3.7-3.6,5.2
		c-2.9,2.9-4.7,2.1-6.3-0.3c-1.8-2.6-3.1-5.5-4.5-8.3c-2.4-5-4.6-10.1-7.1-15.1c-2.1-4.3-5.4-7.6-9.6-10.1c-2.3-1.4-4.5-2.8-6.5-4.6
		c-3.3-3-3.9-7-3.3-11.2c1.2-7.9,5.1-14.8,9.6-21.2c6.8-9.5,13.5-19.1,20.8-28.3c6.5-8.2,17.6-15.1,25.8-18.3
		C178.2,384.1,187.4,395.4,198.5,405.3z"/>
	<path class="st0" d="M353,368.8c13.4,6.4,24.5,14.8,32.5,27.3c4.1,6.4,9,12.2,13.2,18.5c3,4.6,5.7,9.4,8.1,14.4
		c2.1,4.2,2.4,9,2,13.7c-0.2,2.7-2,4.7-4,6.3c-1.7,1.3-3.5,2.5-5.3,3.6c-4.4,2.6-7.8,6.1-10,10.7c-2.7,5.6-5.2,11.3-7.8,17
		c-0.9,2-1.9,4-3.2,5.8c-2.3,3.2-5.4,3.2-7.4-0.2c-3.2-5.5-6-11.2-8.8-17c-6-12.3-11.5-24.9-17.8-37.1c-5.2-10.1-11.5-19.5-19-28
		c-0.3-0.4-0.6-0.8-1-1.3C335.7,392.5,344.9,381.3,353,368.8z"/>
</g>
<g id="Calque_4">
</g>
<g id="Calque_2_00000010299425115938090590000002838715010488453551_">
	<g>
		<path class="st1" d="M359.8,184.3c0,0-9.2-21.5-32.6-33.7s-48.5-17.4-48.5-17.4s-43.3-7.2-96,26.5
			c-51.1,32.7-40.3,86.3-29.9,145.3c10.4,59,70.8,116.1,118.2,116.1s77.8-67.5,77.8-67.5s23.4-36.1,27.2-96.4
			S359.8,184.3,359.8,184.3z M302,148.1c2.9,0.7,5.7,1.5,8.5,2.6c17,6.8,31.1,17.4,41.8,32.3c1.1,1.5,2.6,3.2,1.4,4.9
			c-0.7,1-2.8,0.9-3.9,1.2c-5.6-0.6-10.6-1.1-15.6-1.6c-2.1-0.2-4.3-0.4-6.4-0.5c-4.3-0.1-7.6-2.1-9.8-5.8
			c-5.8-9.8-11.4-19.7-17.2-29.5c-0.3-0.5-0.6-0.9-0.7-1.4C299.9,148.9,300.1,147.7,302,148.1z M242.7,143.1
			c9.4-1.1,18.9-1.7,28.3-1c4.6,0.4,9.3,0.8,13.8,1.6c3.7,0.6,6.6,2.8,8.6,6.1c6.9,11.9,13.8,23.8,20.6,35.8
			c1.4,2.4,1.2,6.3-1.7,8.8c-7.5,6.5-15,13.1-22.6,19.4c-2.9,2.4-6.4,3.6-10.2,3.5c-6,0-11.9,0-17.9,0c-5.3,0-10.7-0.1-16,0
			c-4.9,0.1-9-1.5-12.7-4.8c-7-6.2-14.2-12.3-21.3-18.4c-2.4-2-3.3-5.5-1.7-8.2c7-12.3,14.1-24.6,21.3-36.8
			C233.8,144.9,238.1,143.6,242.7,143.1z M277.9,290.9c-0.3,0-0.6,0-0.9,0c-9.9,0-19.8,0-29.7,0c-0.5,0-0.9,0-1.4,0
			c-3.6-1.1-6.5-3.1-9-5.9c-7.1-7.9-14.3-15.6-21.4-23.4c-2.8-3.1-3-6.4-0.3-9.5c6.9-8.2,13.7-16.5,20.7-24.6c2-2.3,4.4-4,7.6-4.3
			c0.4-0.1,0.8-0.2,1.1-0.2c11.8,0,23.5,0,35.3,0c0.4,0.1,0.8,0.2,1.1,0.2c3.6,0.6,6.3,2.5,8.6,5.3c6.7,8.2,13.6,16.3,20.3,24.6
			c1.7,2.1,1.7,5.3,0,7.2c-5.3,6.1-10.8,12-16.2,18c-1.8,2-3.7,3.9-5.5,6C285.4,287.6,282.1,290,277.9,290.9z M303.6,329.6
			c2.8,4.3,2.3,7.3-1.6,10.6c-5.8,5-11.7,10-17.5,15.1c-3.3,2.9-7.2,4.3-11.6,4.3c-7.3,0-14.5,0-21.8,0c-4.2,0-7.8-1.4-11-4
			c-6.2-5.3-12.4-10.6-18.6-16c-3-2.6-3.4-5.9-1.3-9.2c6.2-9.5,12.5-19.1,18.8-28.6c2.4-3.6,5.8-5.4,10.2-5.4c4.3,0,8.7,0,13,0
			s8.5,0,12.8,0c4.6,0,8.1,1.9,10.7,5.8C291.5,311.4,297.6,320.5,303.6,329.6z M171.3,184c6.6-9.6,14.9-17.5,24.6-23.9
			c7.4-5,15.4-8.8,23.9-11.5c1.3-0.4,2.8-0.1,4.2-0.1c-0.3,1.3-0.4,2.7-1,3.9c-5.4,9.5-10.9,18.9-16.4,28.4c-2.4,4.1-6,6.1-10.7,6.4
			c-5.3,0.3-10.6,0.9-15.9,1.4l0,0c-2,0.2-4.1,0.3-6.1,0.5c-1.5,0.1-3.3,0.2-3.7-1.5C169.8,186.5,170.6,185,171.3,184z M152.7,253
			c0-2.8,0-5.5,0-8.3c0-0.8,0.1-1.6,0.1-2.4c0-0.3,0.1-0.6,0.1-0.9c-0.1-0.2-0.1-0.3-0.2-0.5c0.4-4.4,0.6-8.8,1.4-13.1
			c1.4-8.4,3.6-16.6,6.8-24.6c1.9-4.8,5.3-7.1,10.5-7.4c6.5-0.4,12.9-1.3,19.4-1.8c7-0.5,13.4,0,18.9,5.5c5.8,5.8,12.3,11,18.7,16.2
			c3.3,2.7,4.4,6.6,1.2,10.3c-6.5,7.6-12.8,15.4-19.4,23c-2.8,3.3-6.8,4.5-11.1,4.7c-6.2,0.4-12.3,0.9-18.5,1.4
			c-7.7,0.6-15.5,1.3-23.2,1.9c-2.3,0.2-3.8-0.9-4.5-3.1C152.9,253.7,152.8,253.3,152.7,253z M170.9,330.7
			c-3.6-9.7-7.3-19.4-10.4-29.3c-2.3-7.4-3.8-15.2-5.5-22.8c-0.7-3.1-0.8-6.3-1-9.5c-0.3-3.7,2.3-6.1,6-6.3
			c6.7-0.4,13.4-0.9,20.1-1.4c5.5-0.4,11.1-1,16.6-1.4c1.8-0.1,3.7,0,5.6,0c3.1,0,5.4,1.5,7.4,3.7c7.9,8.6,15.8,17.1,23.6,25.7
			c2.4,2.6,2.8,6.8,0.8,9.8c-6.3,9.6-12.6,19.2-19,28.8c-2.5,3.7-6,5.5-10.4,5.8c-1.9,0.1-3.8,0.4-5.7,0.5v-0.1
			c-5.9,0.5-11.9,1-17.8,1.4c-1.3,0.1-2.6,0.1-3.9,0C174.2,335.3,171.9,333.5,170.9,330.7z M215.3,393.4c-4.2-4.1-8.3-7.7-12-11.6
			c-9-9.6-16.5-20.4-22.9-31.9c-0.6-1.1-1.3-2.1-1.7-3.2c-0.9-2,0-4,2.2-4.5c2.6-0.5,5.2-0.7,7.9-0.9c4.7-0.4,9.4-0.7,14.2-0.9
			c2.6-0.1,5.3-0.4,7.9,0.1c2.2,0.4,4.6,1.5,6.3,3c6.2,5.1,12.1,10.6,18.4,15.6c3.1,2.4,3,7.4,0.6,10.1c-6,6.7-11.7,13.7-17.5,20.6
			C217.7,390.7,216.7,391.8,215.3,393.4z M298.5,400.6c-8.4,5.3-17.5,9.1-27.3,10.5c-12.5,1.8-24.6,0.1-36-5.5
			c-3.4-1.7-6.7-3.5-10-5.5c-3.4-2-3.9-4.8-1.4-7.8c6.3-7.7,12.7-15.3,19.2-22.9c2.3-2.7,5.3-4.1,8.8-4.4c2.4,0.1,4.7,0.2,7.1,0.2
			c4.6,0,9.2-0.1,13.8-0.2c3.7,0.6,7,2.1,9.5,5.1c6,7.2,12,14.3,18,21.5C303,395.2,302.4,398.2,298.5,400.6z M345.1,347.6
			c-3.2,5.3-6.3,10.7-9.7,15.9c-6.5,9.6-13.9,18.5-22.6,26.3c-1.2,1.1-2.5,2-4.5,3.5c-0.8-1.1-1.5-2.2-2.4-3.2
			c-6.1-7.3-12.2-14.5-18.3-21.8c-2.8-3.4-2.6-6.1,0.7-9c6.3-5.5,12.6-11,19-16.3c3.4-2.8,7.3-4,11.8-2.9c2.4,0.6,5,0.4,7.5,0.6
			c5.5,0.4,10.9,0.9,16.4,1.4C345.6,342.3,346.6,345,345.1,347.6z M370.2,270.3c-1.1,6.4-2,12.8-3.3,19.1c-1.1,5.4-2.5,10.8-4.2,16
			c-2.5,7.7-5.4,15.3-8.2,22.8c-2.1,5.7-4.1,7.9-11.3,7.5c-8.5-0.7-17.1-1.2-25.6-2.1c-3.3-0.4-6.3-2.2-8.3-5.3
			c-6.5-9.9-13-19.7-19.4-29.6c-2.2-3.4-1.8-6.2,1-9.3c7.7-8.4,15.2-17,23.1-25.2c2-2.1,5-3.6,7.8-4.5c2.2-0.7,4.8,0,7.2,0.3
			c2.5,0.2,5,0.7,7.4,0.9c5.1,0.4,10.2,0.6,15.3,1c4.9,0.4,9.7,0.8,14.5,1.4C369.2,263.6,370.8,266.7,370.2,270.3z M368.7,221.7
			c1.4,6.6,1.7,13.4,2.5,20.1c0.1,0.3,0.2,0.6,0.3,1c0,0.3,0,0.6,0,0.9c0,0.2,0,0.3,0,0.5c0,3.1,0,6.2,0,9.3
			c-0.1,0.3-0.2,0.6-0.3,0.9c-0.7,1.9-2.2,2.8-4.1,2.7c-6.2-0.4-12.3-0.9-18.5-1.3c-3.1-0.2-6.3-0.3-9.4-0.6
			c-6-0.5-11.9-1.1-17.9-1.8c-3.1-0.4-5.7-2.2-7.7-4.6c-6.4-7.5-12.7-15.1-19.1-22.7c-3.2-3.8-3-6.4,0.8-9.8
			c7-6.1,14.2-12.1,21.2-18.3c4.3-3.9,9.3-4.3,14.6-3.9c2.5,0.2,5,0.6,7.5,0.9c5.8,0.5,11.7,0.7,17.5,1.5c3.2,0.4,5.7,2.6,6.7,5.7
			C365,208.6,367.3,215.1,368.7,221.7z"/>
	</g>
</g>
</svg>
